<svg xmlns="http://www.w3.org/2000/svg" viewBox="0 0 100 100">
<g transform="translate(-3, 97) scale(0.0195, -0.0195)" fill="#1A3A3A" stroke="none">
<path d="M2330 4274 c-491 -62 -881 -303 -1144 -706 -376 -577 -375 -1429 2 -2013 221 -343 594 -598 992 -679 206 -42 457 -44 650 -6 154 30 150 26 77 92 -63 56 -63 56 -120 37 -96 -33 -233 -45 -343 -31 -189 24 -331 94 -484 239 -118 112 -202 228 -279 387 -207 422 -278 985 -191 1511 96 584 382 956 799 1040 118 24 327 17 426 -15 156 -50 297 -139 406 -258 256 -280 410 -724 435 -1254 7 -148 7 -148 43 -154 174 -29 302 -87 434 -197 26 -22 49 -38 51 -36 10 11 26 214 26 326 -1 713 -350 1310 -923 1578 -207 96 -381 135 -637 140 -102 2 -201 1 -220 -1z"/>
<path d="M3375 2361 c-164 -26 -298 -94 -410 -206 -92 -92 -145 -176 -181 -289 -124 -391 31 -789 371 -951 220 -105 496 -95 703 27 32 18 95 71 142 118 71 71 94 101 133 180 98 200 112 422 38 637 -81 237 -285 421 -524 473 -67 15 -213 20 -272 11z m218 -88 c75 -23 165 -113 216 -215 102 -205 127 -507 62 -761 -44 -170 -129 -290 -247 -348 -60 -30 -69 -31 -151 -27 -73 3 -97 9 -141 33 -73 39 -137 113 -184 211 -50 104 -75 199 -90 346 -19 197 10 392 83 545 95 199 258 277 452 216z"/>
<path d="M3531 2086 c-13 -97 -46 -242 -81 -349 -33 -101 -145 -317 -198 -383 -50 -62 -50 -62 -27 -117 26 -64 91 -157 110 -157 22 0 178 117 261 197 44 43 108 113 142 156 62 78 62 78 62 180 0 240 -71 447 -182 530 -69 52 -73 49 -87 -57z"/>
</g>
</svg>
